<svg viewBox="0 0 1024 1024" xmlns="http://www.w3.org/2000/svg" fill="currentColor">
  <path d="M352 320a160 160 0 1 1 160 160 160 160 0 0 1-160-160zm320 0a160 160 0 1 1 160 160 160 160 0 0 1-160-160zm-320 0a160 160 0 1 1 160 160 160 160 0 0 1-160-160z" opacity="0"/>
  <path d="M672 512c-79.408 0-147.2 51.632-171.296 123.328A237.92 237.92 0 0 0 512 632c-130.4 0-236 105.6-236 236a28 28 0 0 0 28 28h456a28 28 0 0 0 28-28c0-130.4-105.6-236-236-236a237.92 237.92 0 0 0-11.296 3.328C523.2 563.632 455.408 512 376 512c-114.688 0-208 93.312-208 208a28 28 0 0 0 56 0c0-83.248 68.752-152 152-152s152 68.752 152 152-68.752 152-152 152H228v0h568c0 0 0 0 0 0a28 28 0 0 0 28-28c0-114.688-93.312-208-208-208z" fill-opacity="0.15"/>
  <path d="M512 512a184 184 0 1 0-184-184 184 184 0 0 0 184 184zm0-312a128 128 0 1 1-128 128 128 128 0 0 1 128-128zm160 544c99.248 0 180 80.752 180 180a28 28 0 0 1-28 28H300a28 28 0 0 1-28-28c0-99.248 80.752-180 180-180zM359.024 132.768a28 28 0 0 1 39.68-6.4 214.448 214.448 0 0 1 39.296 39.296 28 28 0 0 1-45.248 33.6 158.48 158.48 0 0 0-29.024-28.96 28 28 0 0 1-4.704-37.536z"/>
</svg>
